<svg width="24" height="24" viewBox="0 0 24 24" fill="none" xmlns="http://www.w3.org/2000/svg">
<path d="M20.1429 12.8571H15.8571V17.1429C15.8571 17.3702 15.7668 17.5882 15.6061 17.7489C15.4453 17.9097 15.2273 18 15 18C14.7727 18 14.5547 17.9097 14.3939 17.7489C14.2332 17.5882 14.1429 17.3702 14.1429 17.1429V12.8571H9.85714C9.62981 12.8571 9.4118 12.7668 9.25105 12.6061C9.09031 12.4453 9 12.2273 9 12C9 11.7727 9.09031 11.5547 9.25105 11.3939C9.4118 11.2332 9.62981 11.1429 9.85714 11.1429H14.1429V6.85714C14.1429 6.62981 14.2332 6.4118 14.3939 6.25105C14.5547 6.09031 14.7727 6 15 6C15.2273 6 15.4453 6.09031 15.6061 6.25105C15.7668 6.4118 15.8571 6.62981 15.8571 6.85714V11.1429H20.1429C20.3702 11.1429 20.5882 11.2332 20.749 11.3939C20.9097 11.5547 21 11.7727 21 12C21 12.2273 20.9097 12.4453 20.749 12.6061C20.5882 12.7668 20.3702 12.8571 20.1429 12.8571Z" fill="white"/>
</svg>
